<?xml version="1.0" encoding="UTF-8" standalone="no"?>
<!-- Created with Inkscape (http://www.inkscape.org/) -->

<svg
   width="30.916267mm"
   height="29.330582mm"
   viewBox="0 0 30.916267 29.330582"
   version="1.1"
   id="svg14933"
   inkscape:version="1.2.2 (b0a8486541, 2022-12-01)"
   sodipodi:docname="logo-dark.svg"
   xml:space="preserve"
   xmlns:inkscape="http://www.inkscape.org/namespaces/inkscape"
   xmlns:sodipodi="http://sodipodi.sourceforge.net/DTD/sodipodi-0.dtd"
   xmlns="http://www.w3.org/2000/svg"
   xmlns:svg="http://www.w3.org/2000/svg"><sodipodi:namedview
     id="namedview14935"
     pagecolor="#391c7b"
     bordercolor="#000000"
     borderopacity="0.25"
     inkscape:showpageshadow="2"
     inkscape:pageopacity="0"
     inkscape:pagecheckerboard="false"
     inkscape:deskcolor="#a8a8a8"
     inkscape:document-units="mm"
     showgrid="false"
     inkscape:zoom="2.8501795"
     inkscape:cx="74.907563"
     inkscape:cy="99.467419"
     inkscape:window-width="1874"
     inkscape:window-height="1131"
     inkscape:window-x="46"
     inkscape:window-y="32"
     inkscape:window-maximized="1"
     inkscape:current-layer="g13402" /><defs
     id="defs14930" /><g
     inkscape:label="Ebene 1"
     inkscape:groupmode="layer"
     id="layer1"
     transform="translate(-51.241019,155.61445)"><g
       transform="matrix(0.54690127,-0.01032604,-0.00994053,-0.52648523,61.136124,-146.47028)"
       id="g13404"
       style="fill:#ffffff;stroke:#ffffff;stroke-width:7.08041"><g
         id="g13402"><path
           id="path13400"
           style="color:#000000;stroke:none;-inkscape-stroke:none;fill:#2995e1;fill-opacity:1"
           d="m -6.5038384,17.495769 c -0.6999642,0.01756 -1.4964174,-0.05796 -2.3908086,-0.480193 -0.8943911,-0.42223 -1.875552,-1.34897 -2.296984,-2.49222 -1.757926,-4.7688746 -1.039909,-9.1530434 -0.572043,-12.6015211 -3.217707,-4.5669227 -5.177807,-10.0139353 -6.347829,-15.9088929 l -0.029,-0.139791 -0.01732,-0.121371 c -1.244227,-7.81411 2.341675,-14.419285 7.833796,-18.368995 5.4921217,-3.949711 12.7059119,-5.778738 19.9082451,-5.912586 7.2023329,-0.133847 14.4518179,1.423108 20.0427599,5.127058 5.590941,3.70395 9.36706,10.13304 8.294695,17.853412 l 0.0027,-0.0059 -0.01256,0.08859 -0.01538,0.08962 c -0.978817,5.944163 -2.658907,11.5243397 -5.761515,16.29657107 0.595297,3.44626613 1.51194,7.86048903 -0.09399,12.76377793 -0.378788,1.156522 -1.323101,2.116728 -2.199257,2.572553 -0.876157,0.455826 -1.666848,0.561645 -2.366967,0.571545 -0.840612,0.0118 -1.582041,-0.13103 -2.305049,-0.388629 l -0.14835,-0.05206 -0.143894,-0.06687 c -2.577827,-1.187748 -5.227379,-2.581869 -7.882882,-4.761906 -2.180877,0.53522 -4.459304,0.911023 -6.906298,0.984483 l -0.0019,3.7e-5 c -0.006,1.83e-4 -0.01195,1.71e-4 -0.01795,3.52e-4 -2.2483945,0.06755 -4.3814265,-0.177037 -6.4415051,-0.580368 -2.5257799,2.20171 -5.0717441,3.660792 -7.5565853,4.924364 l -0.140471,0.0695 -0.1463346,0.05882 c -0.7138763,0.286065 -1.4464754,0.459564 -2.2873584,0.480664 z m -0.08796,-3.539657 c 0.3491068,-0.0088 0.7211133,-0.09091 1.0579563,-0.225891 3.0791793,-1.565799 5.60280795,-2.74725 8.2238637,-5.5381514 C 4.931186,8.8011751 7.3683054,9.0840364 9.97764,9.0041711 l 0.00283,-5.56e-5 c 2.85043,-0.085577 5.456376,-0.5148284 7.808383,-1.2603199 2.776611,2.7960884 5.377991,3.8904734 8.56937,5.3609214 0.341506,0.121676 0.717179,0.189126 1.066355,0.184226 0.58196,-0.0082 1.090774,-0.217245 1.251407,-0.707693 1.403986,-4.2866796 0.34998,-8.624996 -0.227327,-12.4031408 3.214342,-4.3706025 4.933607,-9.9254158 5.955401,-16.1305672 l 0.0059,-0.04134 0.0068,-0.04234 c 3.589864,-25.84481 -53.273012,-25.107534 -49.079088,1.231537 l 0.0097,0.06361 0.01248,0.06257 c 1.212746,6.1122664 3.222213,11.5344761 6.5314094,15.7158559 -0.444929,3.7648148 -1.2994291,8.0848219 0.2398574,12.2605721 0.1783408,0.483799 0.6953317,0.6727 1.2771762,0.6581 z M 9.2722586,2.4790116 C 3.9308256,2.5359989 0.41007993,0.88419605 -2.3629782,-2.0846445 -5.2128814,-5.1357571 -7.2454064,-9.8704544 -8.4558394,-15.922589 -10.954346,-32.167567 30.273984,-32.354114 28.186587,-16.995598 27.15832,-10.790346 25.403863,-5.9773491 22.661756,-2.8051381 19.910422,0.37776026 16.135687,2.2779293 9.7964706,2.4677486 l -9.445e-4,1.85e-5 -9.446e-4,1.85e-5 C 9.61845,2.4731936 9.4445642,2.4771716 9.2722586,2.4790116 Z M 3.2773811,-4.3045911 5.1797216,-4.341902 C 6.435024,-4.366523 7.4331033,-5.4442103 7.4094023,-6.7481908 l -0.0359,-1.9751283 C 7.3498008,-10.027299 6.3132703,-11.065082 5.057968,-11.040462 l -1.9023406,0.03731 c -1.2560728,0.02464 -2.25338195,1.1023085 -2.22968061,2.4062889 l 0.0359001,1.9751283 c 0.0237013,1.3039805 1.05946141,2.3417782 2.31553421,2.3171427 z m 11.7257479,-0.229979 1.90234,-0.037311 c 1.255302,-0.02462 2.253381,-1.1023083 2.229681,-2.4062888 l -0.0359,-1.9751283 c -0.0237,-1.3039798 -1.060233,-2.3417628 -2.315535,-2.3171428 l -1.90234,0.03731 c -1.255302,0.02462 -2.253381,1.102308 -2.229681,2.4062888 l 0.0359,1.9751283 c 0.0237,1.3039804 1.060233,2.3417627 2.315535,2.3171427 z m 7.939274,-12.0460439 a 1.6339949,1.697358 2.0952171e-7 0 0 0.822102,-0.205561 1.6339949,1.697358 2.0952171e-7 0 0 0.656439,-2.301817 c -0.945481,-1.808307 -2.293214,-3.164263 -3.96527,-3.925915 -1.672057,-0.761651 -3.576165,-0.964915 -5.773421,-0.889895 a 1.6339949,1.697358 2.0952171e-7 0 0 -1.579191,1.752588 1.6339949,1.697358 2.0952171e-7 0 0 1.686218,1.640447 c 1.930739,-0.06591 3.339302,0.14351 4.353746,0.605611 1.014448,0.4621 1.727769,1.141645 2.405607,2.438068 a 1.6339949,1.697358 2.0952171e-7 0 0 0.972977,0.817186 1.6339949,1.697358 2.0952171e-7 0 0 0.420793,0.06929 z" /></g></g></g></svg>
