<?xml version="1.0" encoding="UTF-8" standalone="no"?>
<!-- Created with Inkscape (http://www.inkscape.org/) -->

<svg
   width="30.916267mm"
   height="29.330582mm"
   viewBox="0 0 30.916267 29.330582"
   version="1.1"
   id="svg14933"
   inkscape:version="1.2.2 (b0a8486541, 2022-12-01)"
   sodipodi:docname="logo-bright.svg"
   xml:space="preserve"
   xmlns:inkscape="http://www.inkscape.org/namespaces/inkscape"
   xmlns:sodipodi="http://sodipodi.sourceforge.net/DTD/sodipodi-0.dtd"
   xmlns="http://www.w3.org/2000/svg"
   xmlns:svg="http://www.w3.org/2000/svg"><sodipodi:namedview
     id="namedview14935"
     pagecolor="#391c7b"
     bordercolor="#000000"
     borderopacity="0.25"
     inkscape:showpageshadow="2"
     inkscape:pageopacity="0"
     inkscape:pagecheckerboard="false"
     inkscape:deskcolor="#a8a8a8"
     inkscape:document-units="mm"
     showgrid="false"
     inkscape:zoom="2.3645289"
     inkscape:cx="72.95322"
     inkscape:cy="9.5156375"
     inkscape:window-width="1874"
     inkscape:window-height="1131"
     inkscape:window-x="46"
     inkscape:window-y="32"
     inkscape:window-maximized="1"
     inkscape:current-layer="g13402" /><defs
     id="defs14930" /><g
     inkscape:label="Ebene 1"
     inkscape:groupmode="layer"
     id="layer1"
     transform="translate(-51.241019,155.61445)"><g
       transform="matrix(0.54690127,-0.01032604,-0.00994053,-0.52648523,61.136124,-146.47028)"
       id="g13404"
       style="fill:#ffffff;stroke:#ffffff;stroke-width:7.08041"><g
         id="g13402"><g
           transform="matrix(1.0001478,-2.5694051e-8,-3.3015103e-8,1.0001478,0.08908555,-0.05257206)"
           id="g6073"
           style="fill:#ff355e;fill-opacity:1"><path
             id="path6860"
             style="fill:#ff355e;fill-opacity:1;fill-rule:nonzero;stroke:none"
             d="m -6.5921273,13.955858 c -0.5818451,0.0146 -1.0987839,-0.173977 -1.2771248,-0.657776 C -9.4085402,9.1223275 -8.5539217,4.8023515 -8.1089923,1.037533 -11.418192,-3.143851 -13.427051,-8.5664563 -14.639798,-14.678729 l -0.01263,-0.06238 -0.0098,-0.06341 c -4.193928,-26.339097 52.668613,-27.07646 49.078746,-1.231624 l -0.0063,0.04253 -0.0063,0.04155 c -1.021795,6.2051581 -2.740898,11.7596683 -5.955243,16.13027515 0.577307,3.77814855 1.631771,8.11641505 0.227787,12.40309885 -0.160633,0.490449 -0.670117,0.699156 -1.252077,0.707382 -0.349177,0.0049 -0.724552,-0.06236 -1.066059,-0.184036 C 23.166944,11.634208 20.565831,10.539443 17.789217,7.7433519 15.437208,8.4888442 12.8311,8.9189915 9.9806671,9.0045685 l -0.00281,5.52e-5 C 7.3685199,9.0844891 4.9313463,8.8011485 2.6901797,8.1920424 0.06912129,10.982947 -2.4545681,12.164354 -5.5337505,13.730155 c -0.3368433,0.13498 -0.7092697,0.216943 -1.0583768,0.225703 z M 9.2718129,2.4787589 c 0.1723058,-0.00184 0.3463457,-0.00557 0.5224774,-0.010978 l 9.38e-4,-1.84e-5 9.381e-4,-1.84e-5 C 16.135389,2.2779246 19.91011,0.37777877 22.661447,-2.8051228 c 2.74211,-3.1722141 4.496569,-7.9848302 5.524837,-14.1900882 2.087399,-15.358532 -39.140535,-15.172733 -36.6420257,1.072261 1.2104342,6.0521409 3.2430212,10.7868296 6.0929273,13.8379453 2.7730609,2.96884351 6.293189,4.620751 11.6346273,4.5637636 z M 3.2775484,-4.3047822 C 2.0214743,-4.2801467 0.98521541,-5.3174801 0.96151407,-6.6214619 l -0.0359094,-1.975636 C 0.90190331,-9.9010796 1.8997232,-10.978551 3.1557973,-11.003187 l 1.9018847,-0.0373 c 1.2553036,-0.02462 2.2925719,1.012937 2.3162733,2.3169187 l 0.035909,1.975636 c 0.023701,1.3039818 -0.975128,2.3812297 -2.2304316,2.4058502 z M 15.002867,-4.5347524 c -1.255303,0.02462 -2.29163,-1.0127118 -2.315331,-2.3166935 l -0.03591,-1.975636 c -0.0237,-1.3039821 0.974186,-2.3814551 2.229489,-2.4060751 l 1.902588,-0.03732 c 1.255303,-0.02462 2.291868,1.012951 2.31557,2.3169325 l 0.03591,1.975636 c 0.0237,1.3039818 -0.974425,2.3812159 -2.229728,2.4058363 z m 7.93978,-12.0461766 a 1.6339949,1.697358 2.0952171e-7 0 1 -0.421183,-0.06923 1.6339949,1.697358 2.0952171e-7 0 1 -0.97247,-0.817277 c -0.677839,-1.296424 -1.391055,-1.975645 -2.405504,-2.437746 -1.014445,-0.462101 -2.423081,-0.671386 -4.353822,-0.605474 a 1.6339949,1.697358 2.0952171e-7 0 1 -1.686991,-1.640344 1.6339949,1.697358 2.0952171e-7 0 1 1.580047,-1.752429 c 2.197258,-0.07502 4.101303,0.12815 5.773361,0.889802 1.672058,0.761652 3.019212,2.117787 3.964694,3.926096 a 1.6339949,1.697358 2.0952171e-7 0 1 -0.656084,2.301621 1.6339949,1.697358 2.0952171e-7 0 1 -0.822048,0.204984 z" /></g></g></g></g></svg>
